<?xml version="1.0" encoding="utf-8"?>
<!-- Generator: Adobe Illustrator 25.2.1, SVG Export Plug-In . SVG Version: 6.00 Build 0)  -->
<svg version="1.1" id="Camada_1" xmlns="http://www.w3.org/2000/svg" xmlns:xlink="http://www.w3.org/1999/xlink" x="0px" y="0px"
	 viewBox="0 0 182.4 116" style="enable-background:new 0 0 182.4 116;" xml:space="preserve">
<style type="text/css">
	.st0{fill:#FFFFFF;}
	.st1{fill:#D94F41;}
</style>
<g>
	<path class="st0" d="M181.1,82.9c-1.3,7.9-4.2,15.1-8.8,21.6c-2.1,1.3-4.2,2.5-6.2,3.8c-5,3-10.7,4.4-16.2,6.3
		c-0.6,0.1-1.3,0.2-1.9,0.3c-0.5-0.1-1-0.2-1.4-0.1c-7.3,1.1-14.6,0.9-21.8-0.2c-12.3-1.9-23.2-6.4-31.9-15.7c-1-1-1.8-1.9-0.7-3.3
		c4-5.1,6.6-10.9,8.8-16.9c0.2-0.5,0.2-1.3,0.9-1.4c0.9-0.1,1,0.8,1.4,1.4c1.4,2.6,3.1,4.9,5.1,7c13,13.2,37.2,14.7,52.1,3.3
		c1.3-1,1.9-2.1,1.9-3.8c-0.1-4.6-0.2-9.2,0-13.8c0.1-2.7-0.8-3.4-3.4-3.4c-7.5,0.1-15,0-22.5,0.1c-2,0-2.8-0.5-2.8-2.7
		c0.1-4.2,0.2-8.4,0-12.6c-0.1-2.4,0.5-3.3,3.1-3.2c12.5,0.1,25,0.1,37.5,0c1,0,2,0.3,2.9-0.2c0.7,0,1.4,0,2.1,0
		c1.9,0.4,1.6,1.9,1.6,3.2C181,62.7,180.5,72.8,181.1,82.9z"/>
	<path class="st0" d="M75.4,42.3c-1.3-1.2-1.6-2.8-2.4-4.1C66.8,28,57.5,23.4,46,22.9c-7.5-0.4-15,0-22.5-0.1
		c-2.2,0-2.6,0.8-2.6,2.8c0.1,15.4,0,30.8,0.1,46.2c0,2.7-0.7,3.4-3.3,3.3c-5-0.2-10-0.1-15,0C0.9,75,0,74.7,0,72.5
		c0.1-13.4-0.2-26.8,0.1-40.2C0.4,25.5,4,19.6,7.1,13.7C9,10,10.6,5.5,14,3.4c3.1-1.9,7.6-0.5,11.5-0.5c7.1-0.1,14.2-0.2,21.3,0
		C61,3.3,73.8,7.6,84,18.1c0.9,1,2,1.7,0.9,3.3c-4.3,6.1-7,13-9,20.1C75.8,41.8,75.6,42,75.4,42.3z"/>
	<path class="st0" d="M177.1,49.3c-0.9,0.6-1.9,0.2-2.9,0.2c-12.5,0-25,0.1-37.5,0c-2.6,0-3.2,0.8-3.1,3.2c0.2,4.2,0.2,8.4,0,12.6
		c-0.1,2.2,0.7,2.7,2.8,2.7c7.5-0.1,15,0,22.5-0.1c2.6,0,3.5,0.7,3.4,3.4c-0.2,4.6-0.1,9.2,0,13.8c0,1.7-0.6,2.8-1.9,3.8
		c-14.9,11.4-39.1,9.9-52.1-3.3c-2.1-2.1-3.7-4.4-5.1-7c-0.3-0.6-0.4-1.5-1.4-1.4c-0.7,0.1-0.7,0.9-0.9,1.4
		c-2.2,6-4.8,11.9-8.8,16.9c-1.1,1.4-0.3,2.3,0.7,3.3c8.6,9.3,19.6,13.8,31.9,15.7c7.2,1.1,14.5,1.4,21.8,0.2c0.5-0.1,1,0.1,1.4,0.1
		c-0.3,0.9-1.2,0.7-1.8,0.7c-16.3,1.2-32.1-0.1-46.2-9.7c-3-2-5.7-4.4-8.1-7c-1-1.1-1.3-2-0.3-3.4c4.2-5.7,7.3-11.9,9.3-18.7
		c0.2-0.7,0.4-1.5,1.2-1.6c0.7-0.1,0.9,0.7,1.1,1.2c7.1,14.5,19.6,19.3,34.8,19.3c8,0,15.1-2.4,21.6-7c1.5-1,2.1-2.1,2.1-3.9
		c-0.1-4.5-0.1-9,0-13.5c0.1-2.3-0.8-2.9-3-2.9c-7.3,0.1-14.6-0.1-21.9,0.1c-3,0.1-3.8-0.9-3.6-3.8c0.2-4.4,0.1-8.8,0-13.2
		c-0.1-2,0.7-2.6,2.6-2.6c13.6,0.1,27.2,0,40.8,0C176.6,49.1,176.9,49.2,177.1,49.3z"/>
	<path class="st0" d="M181.1,82.9c-0.5-10.1-0.1-20.2-0.2-30.3c0-1.3,0.3-2.9-1.6-3.2c1.9,0.1,2.1,0.1,2.1,1.3
		C181.2,61.4,181.6,72.1,181.1,82.9z"/>
	<path class="st0" d="M149.8,114.6c5.5-1.9,11.1-3.3,16.2-6.3c2.1-1.3,4.2-2.5,6.2-3.8C165.8,110.3,158.3,113.4,149.8,114.6z"/>
</g>
<path class="st1" d="M27.6,92.9c6.4-0.3,14.4,0.7,22.4-0.6C66.8,89.7,77.8,77,78.2,59.9c0.2-11,2.2-21.6,7.6-31.4
	c7.3-13.3,18.3-21.9,32.9-26c15.2-4.2,30.1-3.1,44.4,3.8c4.7,2.3,9.8,4.5,12.1,10c0.8,2,1.1,3.4-0.6,5.1c-2.6,2.5-5.1,5.1-7.6,7.7
	c-1.3,1.4-2.4,1.2-3.9,0c-13.2-10.2-27.7-12.6-43-5.8C109.9,27.7,104,36.3,101,46.9c-1.6,5.7-1.9,11.6-2.3,17.5
	C98,74.5,95.3,83.8,89.1,92c-8.6,11.4-20,18.1-34.1,20.2c-13.2,1.9-26.6,0.7-39.8,1c-1.4,0-2.5-0.5-3.2-1.8
	c-3.2-5.1-6.2-10.3-8.6-15.8c-0.9-2.1-0.5-2.8,1.9-2.8C12.2,93,19.1,92.9,27.6,92.9z"/>
</svg>
